# Blender v2.93.5 OBJ File: 'exterior.blend'
# www.blender.org
mtllib exterior_portal.mtl
o Portal_Cube.001
v -1.414629 5.544804 -10.008922
v -1.332552 6.068671 -10.008922
v -1.199265 6.551471 -10.008922
v -1.019891 6.974648 -10.008922
v -0.801323 7.321941 -10.008922
v -0.551961 7.580003 -10.008922
v -0.281387 7.738916 -10.008922
v 0.000000 7.792575 -10.008922
v -1.442343 4.999999 -10.008922
v -1.414629 4.455194 -10.008922
v -1.332552 3.931326 -10.008922
v -1.199265 3.448526 -10.008922
v -1.019891 3.025349 -10.008922
v -0.801323 2.678056 -10.008922
v -0.551961 2.419994 -10.008922
v -0.281387 2.261080 -10.008922
v 0.000000 2.207422 -10.008922
v 0.281387 2.261080 -10.008922
v 0.551961 2.419994 -10.008922
v 0.801323 2.678056 -10.008922
v 1.019891 3.025348 -10.008922
v 1.199265 3.448525 -10.008922
v 1.332552 3.931325 -10.008922
v 1.414629 4.455194 -10.008922
v 1.442343 4.999999 -10.008922
v 1.414629 5.544804 -10.008922
v 1.332551 6.068672 -10.008922
v 1.199265 6.551471 -10.008922
v 1.019891 6.974648 -10.008922
v 0.801323 7.321941 -10.008922
v 0.551961 7.580003 -10.008922
v 0.281387 7.738917 -10.008922
vt 0.146447 0.146447
vt 0.084265 0.222215
vt 0.038061 0.308658
vt 0.009608 0.402455
vt 0.000000 0.500000
vt 0.009608 0.597546
vt 0.038061 0.691342
vt 0.084265 0.777785
vt 0.146447 0.853553
vt 0.222216 0.915734
vt 0.308658 0.961940
vt 0.402455 0.990392
vt 0.500000 1.000000
vt 0.597545 0.990392
vt 0.691342 0.961940
vt 0.777785 0.915734
vt 0.853554 0.853553
vt 0.915735 0.777785
vt 0.961940 0.691342
vt 0.990392 0.597546
vt 1.000000 0.500000
vt 0.990392 0.402455
vt 0.961940 0.308658
vt 0.915735 0.222215
vt 0.853554 0.146446
vt 0.777785 0.084266
vt 0.691342 0.038060
vt 0.597545 0.009608
vt 0.500000 0.000000
vt 0.402455 0.009608
vt 0.308658 0.038060
vt 0.222216 0.084266
vn -0.0000 0.0000 -1.0000
g Portal_Cube.001_Material.003
usemtl Material.003
s off
f 13/1/1 12/2/1 11/3/1 10/4/1 9/5/1 1/6/1 2/7/1 3/8/1 4/9/1 5/10/1 6/11/1 7/12/1 8/13/1 32/14/1 31/15/1 30/16/1 29/17/1 28/18/1 27/19/1 26/20/1 25/21/1 24/22/1 23/23/1 22/24/1 21/25/1 20/26/1 19/27/1 18/28/1 17/29/1 16/30/1 15/31/1 14/32/1
